<?xml version="1.0" encoding="UTF-8"?>
<svg xmlns="http://www.w3.org/2000/svg" xmlns:xlink="http://www.w3.org/1999/xlink" width="38px" height="40px" viewBox="0 0 38 39" version="1.1">
<g id="surface1">
<path style=" stroke:none;fill-rule:nonzero;fill:rgb(7.058824%,42.745098%,65.098039%);fill-opacity:1;" d="M 11.246094 18.355469 L 15.511719 18.355469 C 15.9375 18.355469 16.285156 18.011719 16.285156 17.589844 C 16.285156 17.167969 15.9375 16.824219 15.511719 16.824219 L 11.246094 16.824219 C 10.816406 16.824219 10.46875 17.167969 10.46875 17.589844 C 10.46875 18.011719 10.816406 18.355469 11.246094 18.355469 Z M 11.246094 18.355469 "/>
<path style=" stroke:none;fill-rule:nonzero;fill:rgb(7.058824%,42.745098%,65.098039%);fill-opacity:1;" d="M 8.917969 17.589844 C 8.917969 17.167969 8.570312 16.824219 8.144531 16.824219 L 3.878906 16.824219 C 3.449219 16.824219 3.101562 17.167969 3.101562 17.589844 C 3.101562 18.011719 3.449219 18.355469 3.878906 18.355469 L 8.144531 18.355469 C 8.570312 18.355469 8.917969 18.011719 8.917969 17.589844 Z M 8.917969 17.589844 "/>
<path style=" stroke:none;fill-rule:nonzero;fill:rgb(7.058824%,42.745098%,65.098039%);fill-opacity:1;" d="M 38 7.648438 C 38 3.429688 34.519531 0 30.246094 0 C 29.8125 0 11.570312 0 10.859375 0 C 9.148438 0 7.753906 1.371094 7.753906 3.058594 L 7.753906 10.707031 L 0.777344 10.707031 C 0.347656 10.707031 0 11.050781 0 11.472656 L 0 20.648438 C 0 21.070312 0.347656 21.414062 0.777344 21.414062 L 7.753906 21.414062 L 7.753906 35.941406 C 7.753906 37.628906 9.148438 39 10.859375 39 L 28.695312 39 C 30.40625 39 31.796875 37.628906 31.796875 35.941406 L 31.796875 15.140625 C 35.332031 14.429688 38 11.339844 38 7.648438 Z M 10.859375 1.53125 L 25.597656 1.53125 C 24.105469 2.632812 23.03125 4.253906 22.644531 6.117188 L 9.304688 6.117188 L 9.304688 3.058594 C 9.304688 2.214844 10.003906 1.53125 10.859375 1.53125 Z M 17.835938 12.234375 L 17.835938 13.765625 L 1.550781 13.765625 L 1.550781 12.234375 Z M 1.550781 15.292969 L 17.835938 15.292969 L 17.835938 19.882812 L 1.550781 19.882812 Z M 28.695312 37.472656 L 10.859375 37.472656 C 10.003906 37.472656 9.304688 36.785156 9.304688 35.941406 L 9.304688 32.882812 L 30.246094 32.882812 L 30.246094 35.941406 C 30.246094 36.785156 29.550781 37.472656 28.695312 37.472656 Z M 30.246094 31.355469 L 9.304688 31.355469 L 9.304688 21.414062 L 18.613281 21.414062 C 19.039062 21.414062 19.386719 21.070312 19.386719 20.648438 L 19.386719 11.472656 C 19.386719 11.050781 19.039062 10.707031 18.613281 10.707031 L 9.304688 10.707031 L 9.304688 7.648438 L 22.488281 7.648438 C 22.488281 11.863281 25.96875 15.292969 30.246094 15.292969 Z M 30.246094 13.765625 C 26.824219 13.765625 24.042969 11.019531 24.042969 7.648438 C 24.042969 4.273438 26.824219 1.53125 30.246094 1.53125 C 33.667969 1.53125 36.449219 4.273438 36.449219 7.648438 C 36.449219 11.019531 33.667969 13.765625 30.246094 13.765625 Z M 30.246094 13.765625 "/>
<path style=" stroke:none;fill-rule:nonzero;fill:rgb(7.058824%,42.745098%,65.098039%);fill-opacity:1;" d="M 32.605469 5.101562 L 29.082031 8.574219 L 27.886719 7.394531 C 27.582031 7.09375 27.089844 7.09375 26.789062 7.394531 C 26.484375 7.691406 26.484375 8.175781 26.789062 8.476562 L 28.535156 10.195312 C 28.835938 10.496094 29.328125 10.496094 29.628906 10.195312 L 33.703125 6.179688 C 34.003906 5.882812 34.003906 5.398438 33.703125 5.101562 C 33.398438 4.800781 32.90625 4.800781 32.605469 5.101562 Z M 32.605469 5.101562 "/>
<path style=" stroke:none;fill-rule:nonzero;fill:rgb(7.058824%,42.745098%,65.098039%);fill-opacity:1;" d="M 21.714844 34.414062 L 17.835938 34.414062 C 17.410156 34.414062 17.0625 34.753906 17.0625 35.175781 C 17.0625 35.597656 17.410156 35.941406 17.835938 35.941406 L 21.714844 35.941406 C 22.144531 35.941406 22.488281 35.597656 22.488281 35.175781 C 22.488281 34.753906 22.144531 34.414062 21.714844 34.414062 Z M 21.714844 34.414062 "/>
<path style=" stroke:none;fill-rule:nonzero;fill:rgb(7.058824%,42.745098%,65.098039%);fill-opacity:1;" d="M 17.0625 4.589844 L 20.9375 4.589844 C 21.367188 4.589844 21.714844 4.246094 21.714844 3.824219 C 21.714844 3.402344 21.367188 3.058594 20.9375 3.058594 L 17.0625 3.058594 C 16.632812 3.058594 16.285156 3.402344 16.285156 3.824219 C 16.285156 4.246094 16.632812 4.589844 17.0625 4.589844 Z M 17.0625 4.589844 "/>
</g>
</svg>
